# File units = meters
mtllib MBrot.mtl
g Part 10
v 0.009 0 0.0013125 
v 0.009 0 0 
v 0.01 0 0 
v 0.01 0 0.0013125 
v 0.01 0.003 0.0013125 
v 0.009 0.003 0.0013125 
v 0.009 0.01 0 
v 0.01 0.01 0 
v 0.01 0.003 0.00146875 
v 0.009 0.003 0.00146875 
v 0.01 0.008 0.00146875 
v 0.009 0.008 0.00146875 
v 0.009 0.008 0.0013125 
v 0.009 0.01 0.0013125 
v 0.01 0.008 0.0013125 
v 0.01 0.01 0.0013125 
vn 0 -1 0 
vn 0 0 1 
vn 0 0 -1 
vn 0 -1 0 
vn 0 0 1 
vn -1 0 0 
vn 1 0 0 
vn 0 1 0 
vn 0 0 1 
usemtl 0.372549_0.654902_0.239216_0.000000_0.000000
o mesh0
f 1//1 2//1 3//1 
f 3//1 4//1 1//1 
o mesh1
f 5//2 6//2 1//2 
f 1//2 4//2 5//2 
o mesh2
f 3//3 2//3 7//3 
f 7//3 8//3 3//3 
o mesh3
f 9//4 10//4 6//4 
f 6//4 5//4 9//4 
o mesh4
f 11//5 12//5 10//5 
f 10//5 9//5 11//5 
o mesh5
f 7//6 6//6 13//6 
f 12//6 13//6 6//6 
f 6//6 10//6 12//6 
f 2//6 1//6 6//6 
f 6//6 7//6 2//6 
f 13//6 14//6 7//6 
o mesh6
f 3//7 15//7 5//7 
f 9//7 5//7 15//7 
f 15//7 11//7 9//7 
f 8//7 16//7 15//7 
f 15//7 3//7 8//7 
f 5//7 4//7 3//7 
o mesh7
f 11//8 15//8 13//8 
f 13//8 12//8 11//8 
o mesh8
f 16//9 14//9 13//9 
f 13//9 15//9 16//9 
o mesh9
f 16//8 8//8 7//8 
f 7//8 14//8 16//8 
g Part 1
v 0 0.01 0.00115625 
v 0 0.01 0 
v 0 0 0 
v 0 0 0.00115625 
v 0.001 0 0 
v 0.001 0 0.00115625 
v 0.001 0.01 0 
v 0.001 0.01 0.00115625 
vn -1 0 0 
vn 0 -1 0 
vn 1 0 0 
vn 0 0 1 
vn 0 0 -1 
vn 0 1 0 
o mesh10
f 17//10 18//10 19//10 
f 19//10 20//10 17//10 
o mesh11
f 20//11 19//11 21//11 
f 21//11 22//11 20//11 
o mesh12
f 22//12 21//12 23//12 
f 23//12 24//12 22//12 
o mesh13
f 24//13 17//13 20//13 
f 20//13 22//13 24//13 
o mesh14
f 21//14 19//14 18//14 
f 18//14 23//14 21//14 
o mesh15
f 24//15 23//15 18//15 
f 18//15 17//15 24//15 
g Part 2
v 0.001 0 0.00115625 
v 0.001 0 0 
v 0.002 0 0 
v 0.002 0 0.00115625 
v 0.002 0.002 0.00115625 
v 0.001 0.002 0.00115625 
v 0.001 0.01 0 
v 0.002 0.01 0 
v 0.002 0.002 0.0013125 
v 0.001 0.002 0.0013125 
v 0.002 0.003 0.0013125 
v 0.001 0.003 0.0013125 
v 0.002 0.003 0.00146875 
v 0.001 0.003 0.00146875 
v 0.002 0.004 0.00146875 
v 0.001 0.004 0.00146875 
v 0.002 0.004 0.001625 
v 0.001 0.004 0.001625 
v 0.002 0.005 0.001625 
v 0.001 0.005 0.001625 
v 0.002 0.005 0.006 
v 0.001 0.005 0.006 
v 0.002 0.006 0.006 
v 0.001 0.006 0.006 
v 0.002 0.006 0.001625 
v 0.001 0.006 0.001625 
v 0.002 0.007 0.001625 
v 0.001 0.007 0.001625 
v 0.002 0.007 0.00146875 
v 0.001 0.007 0.00146875 
v 0.002 0.008 0.00146875 
v 0.001 0.008 0.00146875 
v 0.002 0.008 0.0013125 
v 0.001 0.008 0.0013125 
v 0.002 0.009 0.0013125 
v 0.001 0.009 0.0013125 
v 0.001 0.009 0.00115625 
v 0.001 0.01 0.00115625 
v 0.002 0.009 0.00115625 
v 0.002 0.01 0.00115625 
vn 0 -1 0 
vn 0 0 1 
vn 0 0 -1 
vn 0 -1 0 
vn 0 0 1 
vn 0 1 0 
vn -1 0 0 
vn 1 0 0 
vn 0 1 0 
vn 0 0 1 
o mesh16
f 25//16 26//16 27//16 
f 27//16 28//16 25//16 
o mesh17
f 29//17 30//17 25//17 
f 25//17 28//17 29//17 
o mesh18
f 27//18 26//18 31//18 
f 31//18 32//18 27//18 
o mesh19
f 33//19 34//19 30//19 
f 30//19 29//19 33//19 
o mesh20
f 35//20 36//20 34//20 
f 34//20 33//20 35//20 
o mesh21
f 37//19 38//19 36//19 
f 36//19 35//19 37//19 
o mesh22
f 39//20 40//20 38//20 
f 38//20 37//20 39//20 
o mesh23
f 41//19 42//19 40//19 
f 40//19 39//19 41//19 
o mesh24
f 43//20 44//20 42//20 
f 42//20 41//20 43//20 
o mesh25
f 45//19 46//19 44//19 
f 44//19 43//19 45//19 
o mesh26
f 47//20 48//20 46//20 
f 46//20 45//20 47//20 
o mesh27
f 47//21 49//21 50//21 
f 50//21 48//21 47//21 
o mesh28
f 51//20 52//20 50//20 
f 50//20 49//20 51//20 
o mesh29
f 51//21 53//21 54//21 
f 54//21 52//21 51//21 
o mesh30
f 55//20 56//20 54//20 
f 54//20 53//20 55//20 
o mesh31
f 55//21 57//21 58//21 
f 58//21 56//21 55//21 
o mesh32
f 59//20 60//20 58//20 
f 58//20 57//20 59//20 
o mesh33
f 31//22 44//22 61//22 
f 61//22 44//22 58//22 
f 58//22 60//22 61//22 
f 58//22 44//22 54//22 
f 54//22 56//22 58//22 
f 54//22 44//22 50//22 
f 50//22 52//22 54//22 
f 48//22 50//22 44//22 
f 44//22 46//22 48//22 
f 40//22 42//22 44//22 
f 44//22 31//22 40//22 
f 36//22 38//22 40//22 
f 40//22 31//22 36//22 
f 30//22 34//22 36//22 
f 36//22 31//22 30//22 
f 26//22 25//22 30//22 
f 30//22 31//22 26//22 
f 61//22 62//22 31//22 
o mesh34
f 27//23 49//23 29//23 
f 29//23 49//23 35//23 
f 35//23 33//23 29//23 
f 35//23 49//23 39//23 
f 39//23 37//23 35//23 
f 39//23 49//23 43//23 
f 43//23 41//23 39//23 
f 45//23 43//23 49//23 
f 49//23 47//23 45//23 
f 53//23 51//23 49//23 
f 49//23 27//23 53//23 
f 57//23 55//23 53//23 
f 53//23 27//23 57//23 
f 63//23 59//23 57//23 
f 57//23 27//23 63//23 
f 32//23 64//23 63//23 
f 63//23 27//23 32//23 
f 29//23 28//23 27//23 
o mesh35
f 59//24 63//24 61//24 
f 61//24 60//24 59//24 
o mesh36
f 64//24 32//24 31//24 
f 31//24 62//24 64//24 
o mesh37
f 64//25 62//25 61//25 
f 61//25 63//25 64//25 
g Part 3
v 0.002 0 0.00115625 
v 0.002 0 0 
v 0.003 0 0 
v 0.003 0 0.00115625 
v 0.003 0.001 0.00115625 
v 0.002 0.001 0.00115625 
v 0.002 0.01 0 
v 0.003 0.01 0 
v 0.003 0.001 0.0013125 
v 0.002 0.001 0.0013125 
v 0.003 0.002 0.0013125 
v 0.002 0.002 0.0013125 
v 0.003 0.002 0.00146875 
v 0.002 0.002 0.00146875 
v 0.003 0.004 0.00146875 
v 0.002 0.004 0.00146875 
v 0.003 0.004 0.00178125 
v 0.002 0.004 0.00178125 
v 0.003 0.005 0.00178125 
v 0.002 0.005 0.00178125 
v 0.003 0.005 0.006 
v 0.002 0.005 0.006 
v 0.003 0.006 0.006 
v 0.002 0.006 0.006 
v 0.003 0.006 0.00178125 
v 0.002 0.006 0.00178125 
v 0.003 0.007 0.00178125 
v 0.002 0.007 0.00178125 
v 0.003 0.007 0.00146875 
v 0.002 0.007 0.00146875 
v 0.003 0.009 0.00146875 
v 0.002 0.009 0.00146875 
v 0.002 0.009 0.0013125 
v 0.002 0.01 0.0013125 
v 0.003 0.009 0.0013125 
v 0.003 0.01 0.0013125 
vn 0 -1 0 
vn 0 0 1 
vn 0 0 -1 
vn 0 -1 0 
vn 0 0 1 
vn 0 1 0 
vn -1 0 0 
vn 1 0 0 
vn 0 1 0 
vn 0 0 1 
o mesh38
f 65//26 66//26 67//26 
f 67//26 68//26 65//26 
o mesh39
f 69//27 70//27 65//27 
f 65//27 68//27 69//27 
o mesh40
f 67//28 66//28 71//28 
f 71//28 72//28 67//28 
o mesh41
f 73//29 74//29 70//29 
f 70//29 69//29 73//29 
o mesh42
f 75//30 76//30 74//30 
f 74//30 73//30 75//30 
o mesh43
f 77//29 78//29 76//29 
f 76//29 75//29 77//29 
o mesh44
f 79//30 80//30 78//30 
f 78//30 77//30 79//30 
o mesh45
f 81//29 82//29 80//29 
f 80//29 79//29 81//29 
o mesh46
f 83//30 84//30 82//30 
f 82//30 81//30 83//30 
o mesh47
f 85//29 86//29 84//29 
f 84//29 83//29 85//29 
o mesh48
f 87//30 88//30 86//30 
f 86//30 85//30 87//30 
o mesh49
f 87//31 89//31 90//31 
f 90//31 88//31 87//31 
o mesh50
f 91//30 92//30 90//30 
f 90//30 89//30 91//30 
o mesh51
f 91//31 93//31 94//31 
f 94//31 92//31 91//31 
o mesh52
f 95//30 96//30 94//30 
f 94//30 93//30 95//30 
o mesh53
f 71//32 84//32 94//32 
f 94//32 97//32 71//32 
f 94//32 96//32 97//32 
f 94//32 84//32 90//32 
f 90//32 92//32 94//32 
f 88//32 90//32 84//32 
f 84//32 86//32 88//32 
f 80//32 82//32 84//32 
f 84//32 71//32 80//32 
f 76//32 78//32 80//32 
f 80//32 71//32 76//32 
f 70//32 74//32 76//32 
f 76//32 71//32 70//32 
f 66//32 65//32 70//32 
f 70//32 71//32 66//32 
f 97//32 98//32 71//32 
o mesh54
f 67//33 89//33 79//33 
f 79//33 69//33 67//33 
f 69//33 79//33 75//33 
f 75//33 73//33 69//33 
f 79//33 77//33 75//33 
f 79//33 89//33 83//33 
f 83//33 81//33 79//33 
f 85//33 83//33 89//33 
f 89//33 87//33 85//33 
f 93//33 91//33 89//33 
f 89//33 67//33 93//33 
f 99//33 95//33 93//33 
f 93//33 67//33 99//33 
f 72//33 100//33 99//33 
f 99//33 67//33 72//33 
f 69//33 68//33 67//33 
o mesh55
f 95//34 99//34 97//34 
f 97//34 96//34 95//34 
o mesh56
f 100//34 72//34 71//34 
f 71//34 98//34 100//34 
o mesh57
f 100//35 98//35 97//35 
f 97//35 99//35 100//35 
g Part 4
v 0.003 0 0.0013125 
v 0.003 0 0 
v 0.004 0 0 
v 0.004 0 0.0013125 
v 0.004 0.001 0.0013125 
v 0.003 0.001 0.0013125 
v 0.003 0.01 0 
v 0.004 0.01 0 
v 0.004 0.001 0.00146875 
v 0.003 0.001 0.00146875 
v 0.004 0.003 0.00146875 
v 0.003 0.003 0.00146875 
v 0.004 0.003 0.001625 
v 0.003 0.003 0.001625 
v 0.004 0.004 0.001625 
v 0.003 0.004 0.001625 
v 0.004 0.004 0.002875 
v 0.003 0.004 0.002875 
v 0.004 0.005 0.002875 
v 0.003 0.005 0.002875 
v 0.004 0.005 0.006 
v 0.003 0.005 0.006 
v 0.004 0.006 0.006 
v 0.003 0.006 0.006 
v 0.004 0.006 0.002875 
v 0.003 0.006 0.002875 
v 0.004 0.007 0.002875 
v 0.003 0.007 0.002875 
v 0.004 0.007 0.001625 
v 0.003 0.007 0.001625 
v 0.004 0.008 0.001625 
v 0.003 0.008 0.001625 
v 0.003 0.008 0.00146875 
v 0.003 0.01 0.00146875 
v 0.004 0.008 0.00146875 
v 0.004 0.01 0.00146875 
vn 0 -1 0 
vn 0 0 1 
vn 0 0 -1 
vn 0 -1 0 
vn 0 0 1 
vn 0 1 0 
vn -1 0 0 
vn 1 0 0 
vn 0 1 0 
vn 0 0 1 
o mesh58
f 101//36 102//36 103//36 
f 103//36 104//36 101//36 
o mesh59
f 105//37 106//37 101//37 
f 101//37 104//37 105//37 
o mesh60
f 103//38 102//38 107//38 
f 107//38 108//38 103//38 
o mesh61
f 109//39 110//39 106//39 
f 106//39 105//39 109//39 
o mesh62
f 111//40 112//40 110//40 
f 110//40 109//40 111//40 
o mesh63
f 113//39 114//39 112//39 
f 112//39 111//39 113//39 
o mesh64
f 115//40 116//40 114//40 
f 114//40 113//40 115//40 
o mesh65
f 117//39 118//39 116//39 
f 116//39 115//39 117//39 
o mesh66
f 119//40 120//40 118//40 
f 118//40 117//40 119//40 
o mesh67
f 121//39 122//39 120//39 
f 120//39 119//39 121//39 
o mesh68
f 123//40 124//40 122//40 
f 122//40 121//40 123//40 
o mesh69
f 123//41 125//41 126//41 
f 126//41 124//41 123//41 
o mesh70
f 127//40 128//40 126//40 
f 126//40 125//40 127//40 
o mesh71
f 127//41 129//41 130//41 
f 130//41 128//41 127//41 
o mesh72
f 131//40 132//40 130//40 
f 130//40 129//40 131//40 
o mesh73
f 133//42 116//42 130//42 
f 116//42 118//42 120//42 
f 130//42 120//42 126//42 
f 124//42 126//42 120//42 
f 107//42 116//42 133//42 
f 120//42 130//42 116//42 
f 120//42 122//42 124//42 
f 130//42 132//42 133//42 
f 133//42 134//42 107//42 
f 112//42 114//42 116//42 
f 116//42 107//42 112//42 
f 106//42 110//42 112//42 
f 112//42 107//42 106//42 
f 102//42 101//42 106//42 
f 106//42 107//42 102//42 
f 126//42 128//42 130//42 
o mesh74
f 103//43 129//43 105//43 
f 105//43 129//43 111//43 
f 111//43 129//43 115//43 
f 129//43 127//43 125//43 
f 115//43 125//43 119//43 
f 121//43 119//43 125//43 
f 111//43 109//43 105//43 
f 125//43 115//43 129//43 
f 125//43 123//43 121//43 
f 115//43 113//43 111//43 
f 105//43 104//43 103//43 
f 135//43 131//43 129//43 
f 129//43 103//43 135//43 
f 108//43 136//43 135//43 
f 135//43 103//43 108//43 
f 119//43 117//43 115//43 
o mesh75
f 131//44 135//44 133//44 
f 133//44 132//44 131//44 
o mesh76
f 136//45 134//45 133//45 
f 133//45 135//45 136//45 
o mesh77
f 136//44 108//44 107//44 
f 107//44 134//44 136//44 
g Part 5
v 0.004 0 0.0013125 
v 0.004 0 0 
v 0.005 0 0 
v 0.005 0 0.0013125 
v 0.005 0.001 0.0013125 
v 0.004 0.001 0.0013125 
v 0.004 0.01 0 
v 0.005 0.01 0 
v 0.005 0.001 0.00146875 
v 0.004 0.001 0.00146875 
v 0.005 0.002 0.00146875 
v 0.004 0.002 0.00146875 
v 0.005 0.002 0.001625 
v 0.004 0.002 0.001625 
v 0.005 0.003 0.001625 
v 0.004 0.003 0.001625 
v 0.005 0.003 0.00178125 
v 0.004 0.003 0.00178125 
v 0.005 0.004 0.00178125 
v 0.004 0.004 0.00178125 
v 0.005 0.004 0.00240625 
v 0.004 0.004 0.00240625 
v 0.005 0.005 0.00240625 
v 0.004 0.005 0.00240625 
v 0.005 0.005 0.006 
v 0.004 0.005 0.006 
v 0.005 0.006 0.006 
v 0.004 0.006 0.006 
v 0.005 0.006 0.00240625 
v 0.004 0.006 0.00240625 
v 0.005 0.007 0.00240625 
v 0.004 0.007 0.00240625 
v 0.005 0.007 0.00178125 
v 0.004 0.007 0.00178125 
v 0.005 0.008 0.00178125 
v 0.004 0.008 0.00178125 
v 0.005 0.008 0.001625 
v 0.004 0.008 0.001625 
v 0.005 0.009 0.001625 
v 0.004 0.009 0.001625 
v 0.004 0.009 0.00146875 
v 0.004 0.01 0.00146875 
v 0.005 0.009 0.00146875 
v 0.005 0.01 0.00146875 
vn 0 -1 0 
vn 0 0 1 
vn 0 0 -1 
vn 0 -1 0 
vn 0 0 1 
vn 0 1 0 
vn -1 0 0 
vn 1 0 0 
vn 0 1 0 
vn 0 0 1 
o mesh78
f 137//46 138//46 139//46 
f 139//46 140//46 137//46 
o mesh79
f 141//47 142//47 137//47 
f 137//47 140//47 141//47 
o mesh80
f 139//48 138//48 143//48 
f 143//48 144//48 139//48 
o mesh81
f 145//49 146//49 142//49 
f 142//49 141//49 145//49 
o mesh82
f 147//50 148//50 146//50 
f 146//50 145//50 147//50 
o mesh83
f 149//49 150//49 148//49 
f 148//49 147//49 149//49 
o mesh84
f 151//50 152//50 150//50 
f 150//50 149//50 151//50 
o mesh85
f 153//49 154//49 152//49 
f 152//49 151//49 153//49 
o mesh86
f 155//50 156//50 154//50 
f 154//50 153//50 155//50 
o mesh87
f 157//49 158//49 156//49 
f 156//49 155//49 157//49 
o mesh88
f 159//50 160//50 158//50 
f 158//50 157//50 159//50 
o mesh89
f 161//49 162//49 160//49 
f 160//49 159//49 161//49 
o mesh90
f 163//50 164//50 162//50 
f 162//50 161//50 163//50 
o mesh91
f 163//51 165//51 166//51 
f 166//51 164//51 163//51 
o mesh92
f 167//50 168//50 166//50 
f 166//50 165//50 167//50 
o mesh93
f 167//51 169//51 170//51 
f 170//51 168//51 167//51 
o mesh94
f 171//50 172//50 170//50 
f 170//50 169//50 171//50 
o mesh95
f 171//51 173//51 174//51 
f 174//51 172//51 171//51 
o mesh96
f 175//50 176//50 174//50 
f 174//50 173//50 175//50 
o mesh97
f 143//52 170//52 174//52 
f 143//52 160//52 170//52 
f 174//52 177//52 143//52 
f 174//52 176//52 177//52 
f 170//52 172//52 174//52 
f 170//52 160//52 166//52 
f 166//52 168//52 170//52 
f 164//52 166//52 160//52 
f 160//52 162//52 164//52 
f 156//52 158//52 160//52 
f 160//52 143//52 156//52 
f 152//52 154//52 156//52 
f 156//52 143//52 152//52 
f 148//52 150//52 152//52 
f 152//52 143//52 148//52 
f 142//52 146//52 148//52 
f 148//52 143//52 142//52 
f 138//52 137//52 142//52 
f 142//52 143//52 138//52 
f 177//52 178//52 143//52 
o mesh98
f 139//53 151//53 147//53 
f 139//53 155//53 151//53 
f 139//53 165//53 155//53 
f 147//53 141//53 139//53 
f 147//53 145//53 141//53 
f 151//53 149//53 147//53 
f 155//53 153//53 151//53 
f 155//53 165//53 159//53 
f 159//53 157//53 155//53 
f 161//53 159//53 165//53 
f 165//53 163//53 161//53 
f 169//53 167//53 165//53 
f 165//53 139//53 169//53 
f 173//53 171//53 169//53 
f 169//53 139//53 173//53 
f 179//53 175//53 173//53 
f 173//53 139//53 179//53 
f 144//53 180//53 179//53 
f 179//53 139//53 144//53 
f 141//53 140//53 139//53 
o mesh99
f 175//54 179//54 177//54 
f 177//54 176//54 175//54 
o mesh100
f 180//54 144//54 143//54 
f 143//54 178//54 180//54 
o mesh101
f 180//55 178//55 177//55 
f 177//55 179//55 180//55 
g Part 6
v 0.005 0 0.0013125 
v 0.005 0 0 
v 0.006 0 0 
v 0.006 0 0.0013125 
v 0.006 0.001 0.0013125 
v 0.005 0.001 0.0013125 
v 0.005 0.01 0 
v 0.006 0.01 0 
v 0.006 0.001 0.00146875 
v 0.005 0.001 0.00146875 
v 0.006 0.002 0.00146875 
v 0.005 0.002 0.00146875 
v 0.006 0.002 0.001625 
v 0.005 0.002 0.001625 
v 0.006 0.003 0.001625 
v 0.005 0.003 0.001625 
v 0.006 0.003 0.006 
v 0.005 0.003 0.006 
v 0.006 0.008 0.006 
v 0.005 0.008 0.006 
v 0.006 0.008 0.001625 
v 0.005 0.008 0.001625 
v 0.006 0.009 0.001625 
v 0.005 0.009 0.001625 
v 0.005 0.009 0.00146875 
v 0.005 0.01 0.00146875 
v 0.006 0.009 0.00146875 
v 0.006 0.01 0.00146875 
vn 0 -1 0 
vn 0 0 1 
vn 0 0 -1 
vn 0 -1 0 
vn 0 0 1 
vn 0 1 0 
vn -1 0 0 
vn 1 0 0 
vn 0 1 0 
vn 0 0 1 
o mesh102
f 181//56 182//56 183//56 
f 183//56 184//56 181//56 
o mesh103
f 185//57 186//57 181//57 
f 181//57 184//57 185//57 
o mesh104
f 183//58 182//58 187//58 
f 187//58 188//58 183//58 
o mesh105
f 189//59 190//59 186//59 
f 186//59 185//59 189//59 
o mesh106
f 191//60 192//60 190//60 
f 190//60 189//60 191//60 
o mesh107
f 193//59 194//59 192//59 
f 192//59 191//59 193//59 
o mesh108
f 195//60 196//60 194//60 
f 194//60 193//60 195//60 
o mesh109
f 197//59 198//59 196//59 
f 196//59 195//59 197//59 
o mesh110
f 199//60 200//60 198//60 
f 198//60 197//60 199//60 
o mesh111
f 199//61 201//61 202//61 
f 202//61 200//61 199//61 
o mesh112
f 203//60 204//60 202//60 
f 202//60 201//60 203//60 
o mesh113
f 187//62 196//62 205//62 
f 205//62 196//62 202//62 
f 202//62 204//62 205//62 
f 200//62 202//62 196//62 
f 196//62 198//62 200//62 
f 192//62 194//62 196//62 
f 196//62 187//62 192//62 
f 186//62 190//62 192//62 
f 192//62 187//62 186//62 
f 182//62 181//62 186//62 
f 186//62 187//62 182//62 
f 205//62 206//62 187//62 
o mesh114
f 183//63 201//63 185//63 
f 185//63 201//63 191//63 
f 191//63 189//63 185//63 
f 191//63 201//63 195//63 
f 195//63 193//63 191//63 
f 197//63 195//63 201//63 
f 201//63 199//63 197//63 
f 207//63 203//63 201//63 
f 201//63 183//63 207//63 
f 188//63 208//63 207//63 
f 207//63 183//63 188//63 
f 185//63 184//63 183//63 
o mesh115
f 203//64 207//64 205//64 
f 205//64 204//64 203//64 
o mesh116
f 208//64 188//64 187//64 
f 187//64 206//64 208//64 
o mesh117
f 208//65 206//65 205//65 
f 205//65 207//65 208//65 
g Part 7
v 0.006 0 0.0013125 
v 0.006 0 0 
v 0.007 0 0 
v 0.007 0 0.0013125 
v 0.007 0.001 0.0013125 
v 0.006 0.001 0.0013125 
v 0.006 0.01 0 
v 0.007 0.01 0 
v 0.007 0.001 0.00146875 
v 0.006 0.001 0.00146875 
v 0.007 0.002 0.00146875 
v 0.006 0.002 0.00146875 
v 0.007 0.002 0.00240625 
v 0.006 0.002 0.00240625 
v 0.007 0.003 0.00240625 
v 0.006 0.003 0.00240625 
v 0.007 0.003 0.006 
v 0.006 0.003 0.006 
v 0.007 0.008 0.006 
v 0.006 0.008 0.006 
v 0.007 0.008 0.00240625 
v 0.006 0.008 0.00240625 
v 0.007 0.009 0.00240625 
v 0.006 0.009 0.00240625 
v 0.006 0.009 0.00146875 
v 0.006 0.01 0.00146875 
v 0.007 0.009 0.00146875 
v 0.007 0.01 0.00146875 
vn 0 -1 0 
vn 0 0 1 
vn 0 0 -1 
vn 0 -1 0 
vn 0 0 1 
vn 0 1 0 
vn -1 0 0 
vn 1 0 0 
vn 0 1 0 
vn 0 0 1 
o mesh118
f 209//66 210//66 211//66 
f 211//66 212//66 209//66 
o mesh119
f 213//67 214//67 209//67 
f 209//67 212//67 213//67 
o mesh120
f 211//68 210//68 215//68 
f 215//68 216//68 211//68 
o mesh121
f 217//69 218//69 214//69 
f 214//69 213//69 217//69 
o mesh122
f 219//70 220//70 218//70 
f 218//70 217//70 219//70 
o mesh123
f 221//69 222//69 220//69 
f 220//69 219//69 221//69 
o mesh124
f 223//70 224//70 222//70 
f 222//70 221//70 223//70 
o mesh125
f 225//69 226//69 224//69 
f 224//69 223//69 225//69 
o mesh126
f 227//70 228//70 226//70 
f 226//70 225//70 227//70 
o mesh127
f 227//71 229//71 230//71 
f 230//71 228//71 227//71 
o mesh128
f 231//70 232//70 230//70 
f 230//70 229//70 231//70 
o mesh129
f 215//72 224//72 233//72 
f 233//72 224//72 230//72 
f 230//72 232//72 233//72 
f 228//72 230//72 224//72 
f 224//72 226//72 228//72 
f 220//72 222//72 224//72 
f 224//72 215//72 220//72 
f 214//72 218//72 220//72 
f 220//72 215//72 214//72 
f 210//72 209//72 214//72 
f 214//72 215//72 210//72 
f 233//72 234//72 215//72 
o mesh130
f 211//73 229//73 219//73 
f 219//73 213//73 211//73 
f 219//73 217//73 213//73 
f 219//73 229//73 223//73 
f 223//73 221//73 219//73 
f 225//73 223//73 229//73 
f 229//73 227//73 225//73 
f 235//73 231//73 229//73 
f 229//73 211//73 235//73 
f 216//73 236//73 235//73 
f 235//73 211//73 216//73 
f 213//73 212//73 211//73 
o mesh131
f 231//74 235//74 233//74 
f 233//74 232//74 231//74 
o mesh132
f 236//74 216//74 215//74 
f 215//74 234//74 236//74 
o mesh133
f 236//75 234//75 233//75 
f 233//75 235//75 236//75 
g Part 8
v 0.007 0 0.0013125 
v 0.007 0 0 
v 0.008 0 0 
v 0.008 0 0.0013125 
v 0.008 0.001 0.0013125 
v 0.007 0.001 0.0013125 
v 0.007 0.01 0 
v 0.008 0.01 0 
v 0.008 0.001 0.00146875 
v 0.007 0.001 0.00146875 
v 0.008 0.002 0.00146875 
v 0.007 0.002 0.00146875 
v 0.008 0.002 0.00178125 
v 0.007 0.002 0.00178125 
v 0.008 0.003 0.00178125 
v 0.007 0.003 0.00178125 
v 0.008 0.003 0.006 
v 0.007 0.003 0.006 
v 0.008 0.008 0.006 
v 0.007 0.008 0.006 
v 0.008 0.008 0.00178125 
v 0.007 0.008 0.00178125 
v 0.008 0.009 0.00178125 
v 0.007 0.009 0.00178125 
v 0.007 0.009 0.00146875 
v 0.007 0.01 0.00146875 
v 0.008 0.009 0.00146875 
v 0.008 0.01 0.00146875 
vn 0 -1 0 
vn 0 0 1 
vn 0 0 -1 
vn 0 -1 0 
vn 0 0 1 
vn 0 1 0 
vn -1 0 0 
vn 1 0 0 
vn 0 1 0 
vn 0 0 1 
o mesh134
f 237//76 238//76 239//76 
f 239//76 240//76 237//76 
o mesh135
f 241//77 242//77 237//77 
f 237//77 240//77 241//77 
o mesh136
f 239//78 238//78 243//78 
f 243//78 244//78 239//78 
o mesh137
f 245//79 246//79 242//79 
f 242//79 241//79 245//79 
o mesh138
f 247//80 248//80 246//80 
f 246//80 245//80 247//80 
o mesh139
f 249//79 250//79 248//79 
f 248//79 247//79 249//79 
o mesh140
f 251//80 252//80 250//80 
f 250//80 249//80 251//80 
o mesh141
f 253//79 254//79 252//79 
f 252//79 251//79 253//79 
o mesh142
f 255//80 256//80 254//80 
f 254//80 253//80 255//80 
o mesh143
f 255//81 257//81 258//81 
f 258//81 256//81 255//81 
o mesh144
f 259//80 260//80 258//80 
f 258//80 257//80 259//80 
o mesh145
f 243//82 252//82 261//82 
f 261//82 252//82 258//82 
f 258//82 260//82 261//82 
f 256//82 258//82 252//82 
f 252//82 254//82 256//82 
f 248//82 250//82 252//82 
f 252//82 243//82 248//82 
f 242//82 246//82 248//82 
f 248//82 243//82 242//82 
f 238//82 237//82 242//82 
f 242//82 243//82 238//82 
f 261//82 262//82 243//82 
o mesh146
f 239//83 257//83 241//83 
f 241//83 257//83 247//83 
f 247//83 245//83 241//83 
f 247//83 257//83 251//83 
f 251//83 249//83 247//83 
f 253//83 251//83 257//83 
f 257//83 255//83 253//83 
f 263//83 259//83 257//83 
f 257//83 239//83 263//83 
f 244//83 264//83 263//83 
f 263//83 239//83 244//83 
f 241//83 240//83 239//83 
o mesh147
f 259//84 263//84 261//84 
f 261//84 260//84 259//84 
o mesh148
f 264//84 244//84 243//84 
f 243//84 262//84 264//84 
o mesh149
f 264//85 262//85 261//85 
f 261//85 263//85 264//85 
g Part 9
v 0.008 0 0.0013125 
v 0.008 0 0 
v 0.009 0 0 
v 0.009 0 0.0013125 
v 0.009 0.002 0.0013125 
v 0.008 0.002 0.0013125 
v 0.008 0.01 0 
v 0.009 0.01 0 
v 0.009 0.002 0.00146875 
v 0.008 0.002 0.00146875 
v 0.009 0.003 0.00146875 
v 0.008 0.003 0.00146875 
v 0.009 0.003 0.00334375 
v 0.008 0.003 0.00334375 
v 0.009 0.005 0.00334375 
v 0.008 0.005 0.00334375 
v 0.009 0.005 0.00209375 
v 0.008 0.005 0.00209375 
v 0.009 0.006 0.00209375 
v 0.008 0.006 0.00209375 
v 0.009 0.006 0.00334375 
v 0.008 0.006 0.00334375 
v 0.009 0.008 0.00334375 
v 0.008 0.008 0.00334375 
v 0.009 0.008 0.00146875 
v 0.008 0.008 0.00146875 
v 0.009 0.009 0.00146875 
v 0.008 0.009 0.00146875 
v 0.008 0.009 0.0013125 
v 0.008 0.01 0.0013125 
v 0.009 0.009 0.0013125 
v 0.009 0.01 0.0013125 
vn 0 -1 0 
vn 0 0 1 
vn 0 0 -1 
vn 0 -1 0 
vn 0 0 1 
vn 0 1 0 
vn 0 -1 0 
vn 0 0 1 
vn 0 1 0 
vn -1 0 0 
vn 1 0 0 
vn 0 1 0 
vn 0 0 1 
o mesh150
f 265//86 266//86 267//86 
f 267//86 268//86 265//86 
o mesh151
f 269//87 270//87 265//87 
f 265//87 268//87 269//87 
o mesh152
f 267//88 266//88 271//88 
f 271//88 272//88 267//88 
o mesh153
f 273//89 274//89 270//89 
f 270//89 269//89 273//89 
o mesh154
f 275//90 276//90 274//90 
f 274//90 273//90 275//90 
o mesh155
f 277//89 278//89 276//89 
f 276//89 275//89 277//89 
o mesh156
f 279//90 280//90 278//90 
f 278//90 277//90 279//90 
o mesh157
f 279//91 281//91 282//91 
f 282//91 280//91 279//91 
o mesh158
f 283//90 284//90 282//90 
f 282//90 281//90 283//90 
o mesh159
f 285//92 286//92 284//92 
f 284//92 283//92 285//92 
o mesh160
f 287//93 288//93 286//93 
f 286//93 285//93 287//93 
o mesh161
f 287//94 289//94 290//94 
f 290//94 288//94 287//94 
o mesh162
f 291//93 292//93 290//93 
f 290//93 289//93 291//93 
o mesh163
f 271//95 284//95 290//95 
f 290//95 293//95 271//95 
f 290//95 292//95 293//95 
f 288//95 290//95 284//95 
f 284//95 286//95 288//95 
f 271//95 276//95 282//95 
f 282//95 284//95 271//95 
f 278//95 280//95 282//95 
f 282//95 276//95 278//95 
f 270//95 274//95 276//95 
f 276//95 271//95 270//95 
f 266//95 265//95 270//95 
f 270//95 271//95 266//95 
f 293//95 294//95 271//95 
o mesh164
f 267//96 281//96 275//96 
f 275//96 269//96 267//96 
f 275//96 273//96 269//96 
f 277//96 275//96 281//96 
f 281//96 279//96 277//96 
f 267//96 289//96 283//96 
f 283//96 281//96 267//96 
f 287//96 285//96 283//96 
f 283//96 289//96 287//96 
f 295//96 291//96 289//96 
f 289//96 267//96 295//96 
f 272//96 296//96 295//96 
f 295//96 267//96 272//96 
f 269//96 268//96 267//96 
o mesh165
f 291//97 295//97 293//97 
f 293//97 292//97 291//97 
o mesh166
f 296//97 272//97 271//97 
f 271//97 294//97 296//97 
o mesh167
f 296//98 294//98 293//98 
f 293//98 295//98 296//98 
